<svg id="svg" version="1.1" xmlns="http://www.w3.org/2000/svg" xmlns:xlink="http://www.w3.org/1999/xlink" width="400" height="400" viewBox="0, 0, 400,400"><g id="svgg"><path id="path0" d="M20.098 68.500 L 20.197 117.000 20.300 68.700 L 20.403 20.400 41.068 20.400 C 52.434 20.400,61.658 20.471,61.567 20.559 C 61.475 20.646,52.355 20.781,41.300 20.859 L 21.200 21.000 21.276 23.600 L 21.351 26.200 21.496 23.900 L 21.640 21.600 23.320 21.657 L 25.000 21.714 23.400 22.000 C 22.027 22.246,22.212 22.295,24.700 22.343 C 27.431 22.397,28.464 22.874,26.900 23.358 C 26.515 23.477,26.872 23.502,27.693 23.414 C 28.514 23.325,29.289 23.421,29.416 23.626 C 29.547 23.838,28.642 24.036,27.324 24.083 C 26.046 24.128,27.520 24.271,30.600 24.400 L 36.200 24.635 30.479 24.717 L 24.759 24.800 24.978 46.900 C 25.411 90.506,25.611 122.686,25.633 151.820 C 25.645 169.041,25.808 181.684,26.021 182.020 C 26.414 182.641,26.505 181.493,26.420 177.000 C 26.385 175.157,26.478 174.739,26.818 175.200 C 27.152 175.652,27.311 175.677,27.464 175.300 C 27.575 175.025,28.012 174.800,28.433 174.800 C 28.855 174.800,29.200 174.620,29.200 174.400 C 29.200 173.821,30.696 173.907,30.936 174.500 C 31.089 174.876,31.245 174.852,31.570 174.400 C 31.893 173.950,32.078 173.920,32.312 174.281 C 32.525 174.609,34.001 174.755,36.962 174.739 C 40.053 174.723,41.391 174.862,41.614 175.223 C 41.858 175.617,42.075 175.582,42.592 175.065 C 42.958 174.699,43.424 174.400,43.629 174.400 C 43.833 174.400,44.000 174.051,44.000 173.624 C 44.000 173.197,44.154 172.752,44.342 172.636 C 44.793 172.357,44.385 174.532,43.931 174.829 C 43.739 174.956,43.945 175.389,44.391 175.791 C 44.846 176.204,45.200 176.322,45.200 176.062 C 45.200 175.808,45.020 175.600,44.800 175.600 C 44.580 175.600,44.400 175.420,44.400 175.200 C 44.400 174.980,44.760 174.800,45.200 174.800 C 45.640 174.800,46.012 174.575,46.027 174.300 C 46.042 174.025,46.249 174.205,46.488 174.700 C 46.944 175.646,47.831 175.980,47.484 175.075 C 47.339 174.696,47.603 174.598,48.441 174.721 C 49.079 174.814,49.600 175.050,49.600 175.245 C 49.600 175.440,49.960 175.600,50.400 175.600 C 50.840 175.600,51.200 175.440,51.200 175.245 C 51.200 175.050,51.721 174.814,52.359 174.721 C 53.240 174.591,53.465 174.687,53.298 175.122 C 53.118 175.590,53.234 175.610,53.939 175.232 C 54.413 174.979,54.800 174.576,54.800 174.337 C 54.800 174.051,55.004 174.071,55.396 174.397 C 55.724 174.669,56.537 174.812,57.202 174.714 C 58.228 174.564,58.375 174.647,58.178 175.269 C 57.901 176.141,58.613 176.264,58.944 175.402 C 59.290 174.501,61.844 174.869,61.673 175.795 C 61.593 176.226,61.744 176.415,62.073 176.299 C 62.363 176.197,62.575 175.818,62.544 175.457 C 62.459 174.450,69.076 174.489,69.843 175.500 C 70.349 176.167,70.375 176.167,70.387 175.500 C 70.398 174.920,70.794 174.794,72.700 174.767 C 73.965 174.748,75.413 174.688,75.917 174.632 C 76.421 174.577,76.927 174.682,77.041 174.867 C 77.156 175.052,77.688 175.112,78.225 175.001 C 78.761 174.891,79.650 174.707,80.200 174.592 C 80.777 174.473,81.200 174.567,81.200 174.816 C 81.200 175.053,81.020 175.136,80.800 175.000 C 80.577 174.862,80.403 175.161,80.406 175.676 C 80.411 176.371,80.501 176.461,80.768 176.039 C 81.094 175.523,81.815 179.888,81.587 181.000 C 81.542 181.220,81.568 182.030,81.644 182.800 C 81.883 185.224,82.199 153.214,82.311 115.031 C 82.371 94.808,82.522 77.854,82.647 77.356 C 83.060 75.710,85.069 75.600,114.643 75.600 C 148.126 75.600,146.191 75.348,146.493 79.750 C 146.652 82.061,148.514 82.063,153.382 79.758 C 164.087 74.687,183.585 72.695,195.800 75.425 C 202.887 77.009,211.305 80.950,217.355 85.517 C 223.944 90.489,223.071 90.430,228.524 86.269 C 258.265 63.577,309.632 74.952,313.560 105.098 C 314.030 108.705,314.362 128.046,314.479 158.600 C 314.524 170.480,314.623 178.784,314.698 177.054 L 314.835 173.907 316.018 174.144 C 316.681 174.276,317.200 174.209,317.200 173.990 C 317.200 173.628,316.510 173.448,315.300 173.493 C 314.996 173.504,314.812 173.019,314.832 172.256 C 314.849 171.565,314.954 171.225,315.065 171.500 C 315.401 172.333,316.073 172.059,315.800 171.200 C 315.494 170.236,317.473 170.004,317.840 170.961 C 318.163 171.802,319.647 172.092,319.510 171.287 C 319.418 170.748,319.918 170.626,322.600 170.533 C 324.751 170.459,325.603 170.548,325.200 170.805 C 324.753 171.090,324.957 171.188,326.000 171.188 C 327.050 171.188,327.250 171.091,326.800 170.800 C 326.367 170.520,326.734 170.411,328.124 170.406 C 329.306 170.402,329.952 170.554,329.800 170.800 C 329.664 171.020,329.833 171.200,330.176 171.200 C 330.519 171.200,330.800 170.992,330.800 170.738 C 330.800 170.462,331.094 170.542,331.531 170.938 C 332.442 171.762,332.959 171.791,332.655 171.000 C 332.370 170.255,333.834 170.156,334.136 170.900 C 334.294 171.289,334.424 171.279,334.720 170.857 C 334.960 170.514,335.420 170.416,335.969 170.590 C 336.477 170.751,337.092 170.655,337.450 170.359 C 337.882 170.000,338.140 169.980,338.331 170.289 C 338.521 170.595,339.230 170.613,340.695 170.346 C 342.098 170.091,343.046 170.103,343.568 170.383 C 344.059 170.645,344.699 170.667,345.294 170.440 C 346.702 169.905,348.397 170.326,348.118 171.141 C 347.958 171.609,348.073 171.568,348.518 171.000 C 349.141 170.204,349.148 170.204,349.988 171.100 C 350.950 172.127,351.386 172.261,351.068 171.433 C 350.948 171.121,351.118 170.763,351.446 170.638 C 351.820 170.494,351.939 170.576,351.765 170.856 C 351.598 171.126,351.709 171.229,352.044 171.115 C 352.354 171.009,352.557 170.499,352.504 169.963 C 352.410 169.029,352.418 169.026,352.778 169.865 C 353.147 170.727,354.648 171.485,355.097 171.037 C 355.227 170.906,355.023 170.800,354.643 170.800 C 354.263 170.800,354.049 170.644,354.167 170.454 C 354.285 170.263,354.819 170.191,355.354 170.293 C 356.060 170.428,356.378 170.277,356.517 169.740 C 356.687 169.079,356.712 169.074,356.754 169.700 C 356.807 170.502,357.832 170.650,358.136 169.900 C 358.294 169.512,358.425 169.523,358.722 169.947 C 358.998 170.341,359.593 170.421,360.852 170.236 C 362.545 169.987,363.285 169.961,365.782 170.060 C 366.432 170.085,367.032 169.903,367.116 169.653 C 367.199 169.404,367.567 169.214,367.933 169.232 C 368.343 169.251,368.409 169.340,368.104 169.464 C 367.727 169.616,367.750 169.807,368.201 170.258 C 368.527 170.584,368.972 170.741,369.189 170.607 C 369.406 170.473,369.970 170.570,370.443 170.823 C 370.915 171.076,371.414 171.129,371.551 170.941 C 372.673 169.405,373.600 169.611,373.600 171.397 C 373.600 172.388,373.773 173.200,373.985 173.200 C 374.229 173.200,374.393 159.780,374.433 136.700 C 374.467 116.625,374.542 99.570,374.600 98.800 C 374.657 98.030,374.771 81.110,374.852 61.200 L 375.000 25.000 351.200 24.795 C 329.340 24.607,328.476 24.576,340.600 24.407 L 353.800 24.224 345.219 24.012 C 338.020 23.834,336.811 23.721,337.714 23.311 C 338.306 23.042,339.063 22.926,339.395 23.054 C 339.728 23.181,340.000 23.086,340.000 22.843 C 340.000 22.561,341.026 22.400,342.824 22.400 C 344.604 22.400,345.556 22.252,345.400 22.000 C 345.245 21.749,346.018 21.618,347.476 21.647 C 349.457 21.688,349.623 21.744,348.600 22.030 C 347.523 22.330,347.544 22.340,348.800 22.124 C 349.570 21.991,355.240 21.768,361.400 21.629 C 367.560 21.490,372.060 21.334,371.400 21.284 C 370.740 21.233,349.860 21.080,325.000 20.943 C 300.140 20.806,279.725 20.628,279.633 20.547 C 279.542 20.466,301.996 20.400,329.531 20.400 L 379.595 20.400 379.700 50.100 L 379.805 79.800 379.903 49.900 L 380.000 20.000 200.000 20.000 L 20.000 20.000 20.098 68.500 M264.905 20.682 C 264.414 20.777,263.514 20.779,262.905 20.687 C 262.297 20.595,262.700 20.517,263.800 20.514 C 264.900 20.511,265.397 20.587,264.905 20.682 M277.100 20.691 C 276.275 20.778,274.925 20.778,274.100 20.691 C 273.275 20.605,273.950 20.534,275.600 20.534 C 277.250 20.534,277.925 20.605,277.100 20.691 M28.100 21.882 C 27.605 21.978,26.795 21.978,26.300 21.882 C 25.805 21.787,26.210 21.709,27.200 21.709 C 28.190 21.709,28.595 21.787,28.100 21.882 M343.507 21.886 C 342.906 21.977,341.826 21.979,341.107 21.890 C 340.388 21.801,340.880 21.726,342.200 21.724 C 343.520 21.722,344.108 21.795,343.507 21.886 M329.500 23.476 C 329.115 23.576,328.485 23.576,328.100 23.476 C 327.715 23.375,328.030 23.293,328.800 23.293 C 329.570 23.293,329.885 23.375,329.500 23.476 M354.900 24.287 C 355.505 24.378,356.495 24.378,357.100 24.287 C 357.705 24.195,357.210 24.120,356.000 24.120 C 354.790 24.120,354.295 24.195,354.900 24.287 M326.500 24.682 C 326.005 24.778,325.195 24.778,324.700 24.682 C 324.205 24.587,324.610 24.509,325.600 24.509 C 326.590 24.509,326.995 24.587,326.500 24.682 M196.882 73.920 C 204.556 75.913,211.560 79.462,218.066 84.653 C 222.218 87.966,221.738 87.997,217.310 84.702 C 199.405 71.376,174.386 69.679,150.618 80.180 C 149.110 80.847,149.063 80.847,149.618 80.176 C 154.597 74.161,183.224 70.372,196.882 73.920 M277.430 73.198 C 287.241 74.991,296.909 79.635,303.200 85.576 L 305.400 87.654 302.502 85.383 C 282.162 69.450,250.104 69.507,228.400 85.516 C 225.346 87.768,225.204 87.836,227.000 86.177 C 234.932 78.853,245.781 74.439,260.200 72.667 C 264.236 72.171,273.346 72.452,277.430 73.198 M146.000 74.600 C 146.274 74.930,146.341 75.204,146.149 75.210 C 145.957 75.215,131.981 75.211,115.091 75.200 C 94.215 75.187,84.129 75.317,83.591 75.605 C 82.795 76.031,82.375 74.958,83.067 74.267 C 83.692 73.642,145.476 73.969,146.000 74.600 M154.115 115.235 C 150.514 115.708,148.158 117.727,147.206 121.153 C 146.950 122.077,146.835 133.661,146.889 153.200 C 146.935 170.030,147.030 181.585,147.099 178.877 C 147.218 174.226,147.268 173.968,147.996 174.199 C 149.355 174.630,156.367 174.778,156.612 174.380 C 157.040 173.689,157.989 173.956,157.750 174.700 C 157.611 175.130,157.655 175.228,157.862 174.954 C 158.048 174.709,158.594 174.385,159.075 174.235 C 159.632 174.061,159.996 173.577,160.075 172.905 C 160.192 171.914,160.242 171.890,160.871 172.524 C 161.241 172.896,161.659 173.200,161.800 173.200 C 161.941 173.200,162.319 173.462,162.640 173.783 C 162.961 174.104,163.473 174.270,163.779 174.153 C 164.410 173.910,165.070 177.718,164.635 179.090 C 164.463 179.630,164.577 179.867,165.006 179.867 C 165.721 179.867,165.663 182.538,165.745 146.000 L 165.800 121.400 164.573 119.200 C 162.683 115.812,159.346 114.547,154.115 115.235 M237.785 116.007 C 230.533 117.032,230.361 117.743,230.462 146.340 C 230.537 167.499,230.890 181.567,231.160 174.200 C 231.217 172.660,231.366 171.670,231.492 172.000 C 231.828 172.884,232.387 173.138,233.557 172.942 C 234.130 172.845,234.915 172.763,235.300 172.758 C 236.107 172.749,236.238 172.163,235.500 171.865 C 235.225 171.754,235.424 171.649,235.943 171.632 C 236.525 171.612,236.812 171.409,236.694 171.100 C 236.573 170.787,236.856 170.600,237.451 170.600 C 237.973 170.600,238.400 170.716,238.400 170.857 C 238.400 171.497,239.784 171.558,240.458 170.948 C 240.866 170.578,241.200 170.461,241.200 170.688 C 241.200 170.915,241.661 171.100,242.224 171.100 C 242.946 171.100,243.183 170.932,243.028 170.529 C 242.898 170.189,242.982 170.065,243.237 170.223 C 243.472 170.368,243.562 170.899,243.435 171.402 C 243.155 172.519,244.382 173.198,244.979 172.257 C 245.302 171.748,245.471 171.788,246.128 172.530 L 246.898 173.400 246.600 172.400 C 246.436 171.850,246.099 171.146,245.851 170.835 C 245.469 170.356,245.539 170.343,246.300 170.749 C 246.795 171.012,247.200 171.502,247.200 171.838 C 247.200 172.197,247.390 172.330,247.662 172.162 C 247.935 171.993,248.016 172.051,247.859 172.305 C 247.713 172.540,247.786 173.238,248.021 173.855 C 248.364 174.756,248.325 175.066,247.824 175.432 C 246.991 176.041,247.036 176.364,248.077 177.266 C 249.564 178.556,249.597 177.900,249.497 149.309 L 249.400 121.737 248.198 119.768 C 246.292 116.648,242.624 115.323,237.785 116.007 M341.600 165.824 C 341.600 166.141,341.420 166.400,341.200 166.400 C 340.980 166.400,340.800 166.029,340.800 165.576 C 340.800 165.123,340.980 164.864,341.200 165.000 C 341.420 165.136,341.600 165.507,341.600 165.824 M349.416 165.227 C 349.765 165.791,349.238 166.302,348.878 165.748 C 348.725 165.513,348.330 165.217,348.000 165.092 C 347.592 164.936,347.680 164.853,348.276 164.832 C 348.758 164.814,349.271 164.992,349.416 165.227 M371.200 165.004 C 371.200 166.443,368.013 167.134,367.987 165.700 C 367.975 165.033,367.949 165.033,367.443 165.700 C 366.872 166.452,365.600 166.659,365.600 166.000 C 365.600 165.780,365.900 165.600,366.267 165.600 C 366.633 165.600,366.827 165.494,366.697 165.363 C 366.326 164.993,364.761 165.613,365.018 166.029 C 365.148 166.240,364.289 166.400,363.024 166.400 C 361.190 166.400,360.792 166.277,360.754 165.700 C 360.709 165.033,360.698 165.033,360.524 165.700 C 360.393 166.202,359.937 166.400,358.915 166.400 C 358.025 166.400,357.288 166.136,356.957 165.700 C 356.451 165.033,356.425 165.033,356.413 165.700 C 356.400 166.420,355.200 166.717,355.200 166.000 C 355.200 165.424,354.105 165.506,353.864 166.100 C 353.711 166.476,353.555 166.452,353.230 166.000 C 352.871 165.499,352.742 165.490,352.447 165.947 C 352.159 166.395,351.958 166.358,351.347 165.747 C 350.618 165.018,350.843 164.999,360.900 164.936 C 366.565 164.901,371.200 164.932,371.200 165.004 M336.000 165.800 C 336.000 166.133,335.644 166.400,335.200 166.400 C 334.215 166.400,334.142 165.726,335.100 165.476 C 335.485 165.375,335.845 165.272,335.900 165.246 C 335.955 165.221,336.000 165.470,336.000 165.800 M337.988 165.584 C 338.312 165.789,338.456 166.078,338.307 166.226 C 338.159 166.374,337.747 166.204,337.390 165.848 C 336.687 165.144,337.043 164.987,337.988 165.584 M345.863 166.327 C 344.535 166.483,343.978 166.108,344.790 165.606 C 345.134 165.393,345.679 165.440,346.178 165.725 C 346.961 166.172,346.946 166.201,345.863 166.327 M50.600 169.600 C 50.747 169.839,50.263 170.000,49.400 170.000 C 48.537 170.000,48.053 169.839,48.200 169.600 C 48.336 169.380,48.876 169.200,49.400 169.200 C 49.924 169.200,50.464 169.380,50.600 169.600 M233.600 170.824 C 233.600 171.057,233.420 171.136,233.200 171.000 C 232.978 170.863,232.795 171.165,232.788 171.676 C 232.777 172.534,232.745 172.547,232.341 171.852 C 232.012 171.286,232.039 171.021,232.453 170.758 C 233.192 170.290,233.600 170.314,233.600 170.824 M342.623 171.200 C 342.993 172.540,343.176 172.686,343.609 171.988 C 343.850 171.599,343.809 171.346,343.487 171.240 C 343.219 171.152,342.853 170.882,342.674 170.640 C 342.494 170.398,342.472 170.650,342.623 171.200 M316.400 171.200 C 316.400 171.420,316.670 171.600,317.000 171.600 C 317.330 171.600,317.600 171.420,317.600 171.200 C 317.600 170.980,317.330 170.800,317.000 170.800 C 316.670 170.800,316.400 170.980,316.400 171.200 M323.156 171.100 C 322.923 172.696,322.954 174.000,323.226 174.000 C 323.408 174.000,323.529 173.280,323.494 172.400 C 323.436 170.956,323.270 170.318,323.156 171.100 M320.812 171.600 C 320.812 171.930,320.987 172.470,321.200 172.800 C 321.545 173.333,321.588 173.333,321.588 172.800 C 321.588 172.470,321.413 171.930,321.200 171.600 C 320.855 171.067,320.812 171.067,320.812 171.600 M330.460 171.842 C 330.162 172.178,330.023 172.556,330.150 172.683 C 330.428 172.961,331.600 172.046,331.600 171.551 C 331.600 171.020,331.065 171.157,330.460 171.842 M69.100 172.294 C 68.055 172.376,66.345 172.376,65.300 172.294 C 64.255 172.212,65.110 172.144,67.200 172.144 C 69.290 172.144,70.145 172.212,69.100 172.294 M154.429 173.200 C 154.853 173.200,155.200 173.007,155.200 172.771 C 155.200 172.536,155.470 172.613,155.800 172.943 C 156.657 173.800,156.660 173.799,153.800 173.808 C 151.446 173.815,151.203 173.739,151.232 173.008 C 151.249 172.563,151.354 172.425,151.465 172.700 C 151.759 173.428,152.666 173.312,153.019 172.500 C 153.309 171.833,153.332 171.833,153.491 172.500 C 153.583 172.885,154.005 173.200,154.429 173.200 M238.886 172.338 C 238.603 172.518,238.488 172.964,238.629 173.332 C 238.900 174.038,239.600 174.255,239.600 173.633 C 239.600 173.431,239.709 172.981,239.843 172.633 C 240.106 171.946,239.701 171.821,238.886 172.338 M316.400 172.400 C 316.400 172.620,316.695 172.800,317.056 172.800 C 317.417 172.800,317.951 173.115,318.243 173.500 C 318.602 173.972,318.779 174.028,318.787 173.671 C 318.794 173.381,318.543 172.886,318.229 172.571 C 317.573 171.916,316.400 171.806,316.400 172.400 M27.835 173.898 C 27.405 174.328,27.177 173.726,27.479 172.957 C 27.762 172.236,27.783 172.235,27.924 172.931 C 28.004 173.334,27.965 173.769,27.835 173.898 M158.800 173.000 C 158.800 173.330,158.620 173.600,158.400 173.600 C 158.180 173.600,158.000 173.330,158.000 173.000 C 158.000 172.670,158.180 172.400,158.400 172.400 C 158.620 172.400,158.800 172.670,158.800 173.000 M331.600 172.800 C 331.600 173.020,332.050 173.200,332.600 173.200 C 333.150 173.200,333.600 173.020,333.600 172.800 C 333.600 172.580,333.150 172.400,332.600 172.400 C 332.050 172.400,331.600 172.580,331.600 172.800 M69.300 173.498 C 67.485 173.572,64.515 173.572,62.700 173.498 C 60.885 173.423,62.370 173.363,66.000 173.363 C 69.630 173.363,71.115 173.423,69.300 173.498 M160.990 174.248 C 161.347 174.604,161.759 174.774,161.907 174.626 C 162.056 174.478,161.912 174.189,161.588 173.984 C 160.643 173.387,160.287 173.544,160.990 174.248 M244.000 174.200 C 244.000 174.530,244.180 174.800,244.400 174.800 C 244.620 174.800,244.800 174.530,244.800 174.200 C 244.800 173.870,244.620 173.600,244.400 173.600 C 244.180 173.600,244.000 173.870,244.000 174.200 M232.157 174.633 C 232.291 174.981,232.400 175.351,232.400 175.456 C 232.400 175.561,232.580 175.536,232.800 175.400 C 233.020 175.264,233.200 175.433,233.200 175.776 C 233.200 176.528,234.233 176.612,234.513 175.883 C 234.797 175.143,233.760 173.785,233.440 174.479 C 233.251 174.889,233.150 174.894,232.967 174.500 C 232.624 173.766,231.872 173.889,232.157 174.633 M65.671 175.867 C 65.742 176.234,66.011 176.604,66.269 176.690 C 66.567 176.789,66.659 176.546,66.522 176.023 C 66.266 175.045,65.483 174.902,65.671 175.867 M248.800 176.200 C 248.800 176.530,248.620 176.800,248.400 176.800 C 248.180 176.800,248.000 176.530,248.000 176.200 C 248.000 175.870,248.180 175.600,248.400 175.600 C 248.620 175.600,248.800 175.870,248.800 176.200 M32.400 176.724 C 32.400 176.949,32.625 177.225,32.900 177.336 C 33.289 177.494,33.279 177.624,32.857 177.920 C 32.478 178.185,32.448 178.382,32.757 178.574 C 33.001 178.724,33.200 178.644,33.200 178.397 C 33.200 178.135,33.521 178.048,33.967 178.189 C 34.588 178.387,34.693 178.278,34.520 177.616 C 34.403 177.167,34.162 176.800,33.986 176.800 C 33.810 176.800,33.381 176.691,33.033 176.557 C 32.685 176.424,32.400 176.499,32.400 176.724 M80.493 178.000 C 80.493 178.770,80.575 179.085,80.676 178.700 C 80.776 178.315,80.776 177.685,80.676 177.300 C 80.575 176.915,80.493 177.230,80.493 178.000 M240.313 178.011 C 240.202 178.767,240.298 179.168,240.568 179.080 C 241.110 178.902,241.390 176.800,240.872 176.800 C 240.662 176.800,240.411 177.345,240.313 178.011 M237.200 177.600 C 237.200 177.820,237.470 178.000,237.800 178.000 C 238.130 178.000,238.400 177.820,238.400 177.600 C 238.400 177.380,238.130 177.200,237.800 177.200 C 237.470 177.200,237.200 177.380,237.200 177.600 M246.006 177.900 C 246.024 178.777,246.788 179.359,246.794 178.500 C 246.797 178.005,246.620 177.600,246.400 177.600 C 246.180 177.600,246.003 177.735,246.006 177.900 M379.797 268.800 C 379.797 319.070,379.843 339.635,379.900 314.500 C 379.957 289.365,379.957 248.235,379.900 223.100 C 379.843 197.965,379.797 218.530,379.797 268.800 M30.093 178.800 C 30.686 179.749,31.391 179.873,31.043 178.967 C 30.909 178.619,30.800 178.259,30.800 178.167 C 30.800 178.075,30.528 178.000,30.197 178.000 C 29.693 178.000,29.676 178.133,30.093 178.800 M31.206 178.300 C 31.217 178.847,31.953 179.781,32.188 179.546 C 32.503 179.231,32.001 178.000,31.557 178.000 C 31.361 178.000,31.203 178.135,31.206 178.300 M67.200 178.353 C 67.200 178.743,68.855 179.278,69.149 178.984 C 69.250 178.883,69.113 178.800,68.843 178.800 C 68.573 178.800,68.464 178.620,68.600 178.400 C 68.736 178.180,68.477 178.000,68.024 178.000 C 67.571 178.000,67.200 178.159,67.200 178.353 M74.800 179.000 C 74.800 179.330,75.070 179.600,75.400 179.600 C 75.730 179.600,76.000 179.330,76.000 179.000 C 76.000 178.670,75.730 178.400,75.400 178.400 C 75.070 178.400,74.800 178.670,74.800 179.000 M77.067 178.667 C 76.560 179.174,76.803 179.600,77.600 179.600 C 78.044 179.600,78.400 179.333,78.400 179.000 C 78.400 178.391,77.554 178.179,77.067 178.667 M150.764 179.043 C 150.387 179.498,150.523 179.600,151.508 179.600 C 152.172 179.600,152.801 179.375,152.906 179.100 C 153.176 178.398,151.340 178.349,150.764 179.043 M378.124 179.715 C 376.108 181.769,375.244 182.392,374.701 182.183 C 374.189 181.987,371.654 183.732,370.791 184.875 C 370.676 185.027,369.866 185.638,368.991 186.231 C 368.116 186.825,367.165 187.645,366.877 188.055 C 366.590 188.465,366.183 188.800,365.974 188.800 C 365.764 188.800,365.100 189.237,364.497 189.772 C 361.889 192.082,361.264 192.583,358.800 194.336 C 357.370 195.353,356.140 196.323,356.067 196.493 C 355.993 196.662,355.693 196.800,355.400 196.800 C 355.107 196.800,354.807 196.936,354.733 197.103 C 354.506 197.620,351.310 200.000,350.842 200.000 C 350.599 200.000,350.399 200.135,350.397 200.300 C 350.396 200.465,349.721 201.050,348.897 201.599 C 348.074 202.149,347.141 202.845,346.824 203.147 C 346.508 203.448,345.743 203.871,345.124 204.086 C 344.506 204.302,344.000 204.641,344.000 204.839 C 344.000 205.038,343.792 205.200,343.538 205.200 C 343.284 205.200,342.519 205.623,341.838 206.141 C 341.157 206.658,340.060 207.384,339.400 207.753 C 338.740 208.122,337.729 208.734,337.153 209.112 C 336.577 209.490,334.777 210.594,333.153 211.565 C 331.529 212.535,329.390 213.823,328.400 214.427 C 326.127 215.813,322.002 218.014,317.500 220.245 L 314.000 221.979 314.000 275.161 C 314.000 322.975,313.937 328.406,313.371 328.971 C 312.543 329.800,251.304 329.944,250.480 329.120 C 250.113 328.753,250.000 318.796,250.000 286.744 C 250.000 263.701,249.855 244.758,249.678 244.648 C 249.501 244.539,248.646 244.615,247.778 244.819 C 245.249 245.411,232.334 247.600,231.367 247.600 C 229.975 247.600,230.000 246.862,230.000 288.753 C 230.000 319.243,229.887 328.753,229.520 329.120 C 228.743 329.897,167.469 329.806,166.822 329.026 C 166.462 328.593,166.328 318.883,166.273 289.260 C 166.233 267.704,166.101 249.968,165.980 249.847 C 165.859 249.725,163.339 249.344,160.380 248.998 C 157.421 248.653,153.231 248.104,151.070 247.780 C 148.908 247.456,146.973 247.293,146.770 247.419 C 146.547 247.556,146.400 263.783,146.400 288.144 C 146.400 319.107,146.287 328.753,145.920 329.120 C 145.316 329.724,84.152 329.810,83.200 329.209 C 82.674 328.876,82.575 322.687,82.400 278.789 L 82.200 228.749 78.600 227.233 C 73.007 224.879,63.182 220.053,56.800 216.525 C 49.209 212.330,48.852 212.121,44.400 209.258 C 42.310 207.914,39.520 206.149,38.200 205.336 C 36.880 204.523,33.565 202.245,30.833 200.274 C 26.975 197.491,25.725 196.778,25.233 197.082 C 24.770 197.368,24.385 197.264,23.800 196.692 C 22.776 195.692,21.214 194.646,21.043 194.846 C 20.970 194.931,21.035 202.830,21.186 212.400 C 21.337 221.970,21.492 227.055,21.530 223.700 C 21.573 219.946,21.754 217.600,22.000 217.600 C 22.229 217.600,22.400 216.400,22.400 214.800 C 22.400 213.200,22.571 212.000,22.800 212.000 C 23.029 212.000,23.200 213.200,23.200 214.800 C 23.200 216.400,23.371 217.600,23.600 217.600 C 23.845 217.600,24.033 219.957,24.085 223.700 L 24.170 229.800 24.385 223.200 C 24.503 219.570,24.737 249.990,24.905 290.800 C 25.073 331.610,25.320 367.160,25.454 369.800 L 25.697 374.600 200.118 374.501 L 374.539 374.402 374.610 373.301 C 374.649 372.695,374.842 335.840,375.040 291.400 C 375.238 246.960,375.495 214.920,375.611 220.200 C 375.792 228.458,375.834 228.947,375.911 223.700 C 375.966 219.959,376.155 217.600,376.400 217.600 C 376.629 217.600,376.800 216.400,376.800 214.800 C 376.800 213.200,376.971 212.000,377.200 212.000 C 377.429 212.000,377.600 213.200,377.600 214.800 C 377.600 216.400,377.771 217.600,378.000 217.600 C 378.249 217.600,378.400 219.889,378.400 223.667 C 378.400 227.003,378.482 229.652,378.582 229.552 C 378.947 229.187,379.326 179.200,378.964 179.215 C 378.764 179.224,378.386 179.449,378.124 179.715 M152.403 180.389 C 152.075 180.597,151.373 180.658,150.844 180.525 C 150.235 180.372,149.974 180.434,150.134 180.693 C 150.625 181.487,151.970 181.520,152.847 180.759 C 153.753 179.974,153.454 179.725,152.403 180.389 M20.197 286.200 C 20.197 337.460,20.243 358.371,20.300 332.668 C 20.357 306.965,20.357 265.025,20.300 239.468 C 20.243 213.911,20.197 234.940,20.197 286.200 " stroke="none" fill="#ca484c" fill-rule="evenodd"></path><path id="path1" d="M17.600 10.399 C 17.270 10.613,16.404 10.791,15.676 10.794 C 14.948 10.797,14.438 10.937,14.541 11.105 C 14.645 11.273,14.122 11.382,13.379 11.347 C 12.636 11.312,12.067 11.425,12.114 11.597 C 12.161 11.769,11.500 12.471,10.645 13.155 C 9.790 13.840,9.340 14.405,9.645 14.412 C 9.983 14.420,9.887 14.602,9.400 14.878 C 8.431 15.427,7.984 16.051,8.250 16.481 C 8.358 16.656,8.310 17.022,8.143 17.293 C 7.779 17.881,7.736 18.130,7.321 22.000 C 6.901 25.921,6.901 380.202,7.321 383.600 C 7.792 387.408,7.851 387.704,8.356 388.800 C 9.544 391.376,12.917 394.849,13.900 394.507 C 14.175 394.412,14.400 394.517,14.400 394.742 C 14.400 394.966,14.715 395.142,15.100 395.133 C 15.485 395.123,18.320 395.313,21.400 395.554 C 29.303 396.173,370.697 396.173,378.600 395.554 C 381.680 395.313,384.515 395.123,384.900 395.133 C 385.285 395.142,385.600 394.966,385.600 394.742 C 385.600 394.517,385.825 394.412,386.100 394.507 C 387.083 394.849,390.456 391.376,391.644 388.800 C 392.149 387.704,392.208 387.408,392.679 383.600 C 393.099 380.202,393.099 25.921,392.679 22.000 C 392.264 18.130,392.221 17.881,391.857 17.293 C 391.690 17.022,391.642 16.656,391.750 16.481 C 392.016 16.051,391.569 15.427,390.600 14.878 C 390.113 14.602,390.017 14.420,390.355 14.412 C 390.660 14.405,390.210 13.840,389.355 13.155 C 388.500 12.471,387.839 11.769,387.886 11.597 C 387.933 11.425,387.364 11.312,386.621 11.347 C 385.878 11.382,385.343 11.292,385.433 11.147 C 386.007 10.218,19.033 9.472,17.600 10.399 M380.000 200.000 L 380.000 380.000 200.000 380.000 L 20.000 380.000 20.000 200.000 L 20.000 20.000 200.000 20.000 L 380.000 20.000 380.000 200.000 M172.000 73.014 C 162.112 74.379,151.644 77.729,149.618 80.176 C 149.063 80.847,149.110 80.847,150.618 80.180 C 174.386 69.679,199.405 71.376,217.310 84.702 C 221.738 87.997,222.218 87.966,218.066 84.653 C 205.276 74.448,189.847 70.549,172.000 73.014 M260.200 72.667 C 245.781 74.439,234.932 78.853,227.000 86.177 C 225.204 87.836,225.346 87.768,228.400 85.516 C 250.104 69.507,282.162 69.450,302.502 85.383 L 305.400 87.654 303.200 85.576 C 293.054 75.994,275.650 70.769,260.200 72.667 M83.067 74.267 C 82.375 74.958,82.795 76.031,83.591 75.605 C 84.129 75.317,94.215 75.187,115.091 75.200 C 131.981 75.211,145.957 75.215,146.149 75.210 C 146.341 75.204,146.274 74.930,146.000 74.600 C 145.476 73.969,83.692 73.642,83.067 74.267 " stroke="none" fill="#0f0b0b" fill-rule="evenodd"></path><path id="path2" d="M171.200 77.413 C 163.436 78.498,156.918 80.407,152.173 82.986 C 147.683 85.426,145.972 85.108,145.377 81.722 C 145.230 80.885,144.856 79.795,144.546 79.300 L 143.982 78.400 114.591 78.400 L 85.200 78.400 84.336 79.264 L 83.473 80.127 83.736 135.764 C 83.881 166.364,84.104 222.180,84.232 259.800 C 84.360 297.420,84.535 328.426,84.621 328.703 C 84.745 329.101,90.916 329.184,114.488 329.103 L 144.200 329.000 144.498 274.000 C 144.662 243.750,144.936 197.760,145.105 171.800 L 145.414 124.600 146.487 121.643 C 149.997 111.967,162.693 111.833,166.018 121.438 C 167.486 125.679,167.532 128.350,167.825 228.200 C 167.984 282.540,168.149 327.450,168.190 328.000 L 168.266 329.000 197.433 329.110 C 213.475 329.171,226.960 329.133,227.400 329.027 C 228.194 328.835,228.201 328.437,228.358 277.517 C 228.832 123.381,228.809 124.588,231.350 119.704 C 234.915 112.850,246.726 114.210,249.566 121.801 C 251.162 126.068,251.185 127.277,251.583 228.966 C 251.797 283.727,252.123 328.683,252.309 328.869 C 252.494 329.054,265.955 329.159,282.223 329.103 L 311.800 329.000 312.044 287.200 C 312.711 173.062,312.648 108.395,311.866 105.200 C 304.624 75.591,256.846 66.733,228.079 89.667 C 223.671 93.181,223.116 93.159,218.316 89.270 C 205.254 78.690,189.835 74.809,171.200 77.413 " stroke="none" fill="#f0f0f0" fill-rule="evenodd"></path><path id="path3" d="M20.312 68.700 C 20.263 95.265,20.290 176.130,20.372 248.400 L 20.522 379.800 200.046 379.800 L 379.571 379.800 379.686 230.000 C 379.748 147.610,379.753 66.745,379.695 50.300 L 379.590 20.400 329.528 20.400 C 301.994 20.400,279.542 20.466,279.633 20.547 C 279.725 20.628,300.140 20.806,325.000 20.943 C 349.860 21.080,370.740 21.233,371.400 21.284 C 372.060 21.334,367.560 21.490,361.400 21.629 C 355.240 21.768,349.570 21.991,348.800 22.124 C 347.544 22.340,347.523 22.330,348.600 22.030 C 349.623 21.744,349.457 21.688,347.476 21.647 C 346.018 21.618,345.245 21.749,345.400 22.000 C 345.556 22.252,344.604 22.400,342.824 22.400 C 341.026 22.400,340.000 22.561,340.000 22.843 C 340.000 23.086,339.728 23.181,339.395 23.054 C 339.063 22.926,338.306 23.042,337.714 23.311 C 336.811 23.721,338.020 23.834,345.219 24.012 L 353.800 24.224 340.600 24.407 C 328.476 24.576,329.340 24.607,351.200 24.795 L 375.000 25.000 374.852 61.200 C 374.771 81.110,374.657 98.030,374.600 98.800 C 374.542 99.570,374.467 116.625,374.433 136.700 C 374.393 159.780,374.229 173.200,373.985 173.200 C 373.773 173.200,373.600 172.388,373.600 171.397 C 373.600 169.611,372.673 169.405,371.551 170.941 C 371.414 171.129,370.915 171.076,370.443 170.823 C 369.970 170.570,369.406 170.473,369.189 170.607 C 368.972 170.741,368.527 170.584,368.201 170.258 C 367.750 169.807,367.727 169.616,368.104 169.464 C 368.409 169.340,368.343 169.251,367.933 169.232 C 367.567 169.214,367.199 169.404,367.116 169.653 C 367.032 169.903,366.432 170.085,365.782 170.060 C 363.285 169.961,362.545 169.987,360.852 170.236 C 359.593 170.421,358.998 170.341,358.722 169.947 C 358.425 169.523,358.294 169.512,358.136 169.900 C 357.837 170.638,356.887 170.507,356.676 169.700 C 356.511 169.071,356.488 169.076,356.446 169.747 C 356.411 170.322,356.168 170.449,355.390 170.300 C 354.835 170.194,354.285 170.263,354.167 170.454 C 354.049 170.644,354.263 170.800,354.643 170.800 C 355.023 170.800,355.227 170.906,355.097 171.037 C 354.648 171.485,353.147 170.727,352.778 169.865 C 352.418 169.026,352.410 169.029,352.504 169.963 C 352.557 170.499,352.354 171.009,352.044 171.115 C 351.709 171.229,351.598 171.126,351.765 170.856 C 351.939 170.576,351.820 170.494,351.446 170.638 C 351.118 170.763,350.948 171.121,351.068 171.433 C 351.386 172.261,350.950 172.127,349.988 171.100 C 349.148 170.204,349.141 170.204,348.518 171.000 C 348.073 171.568,347.958 171.609,348.118 171.141 C 348.397 170.326,346.702 169.905,345.294 170.440 C 344.699 170.667,344.059 170.645,343.568 170.383 C 343.046 170.103,342.098 170.091,340.695 170.346 C 339.230 170.613,338.521 170.595,338.331 170.289 C 338.140 169.980,337.882 170.000,337.450 170.359 C 337.092 170.655,336.477 170.751,335.969 170.590 C 335.420 170.416,334.960 170.514,334.720 170.857 C 334.424 171.279,334.294 171.289,334.136 170.900 C 333.834 170.156,332.370 170.255,332.655 171.000 C 332.959 171.791,332.442 171.762,331.531 170.938 C 331.094 170.542,330.800 170.462,330.800 170.738 C 330.800 170.992,330.519 171.200,330.176 171.200 C 329.833 171.200,329.664 171.020,329.800 170.800 C 329.952 170.554,329.306 170.402,328.124 170.406 C 326.734 170.411,326.367 170.520,326.800 170.800 C 327.250 171.091,327.050 171.188,326.000 171.188 C 324.957 171.188,324.753 171.090,325.200 170.805 C 325.603 170.548,324.751 170.459,322.600 170.533 C 319.918 170.626,319.418 170.748,319.510 171.287 C 319.647 172.092,318.163 171.802,317.840 170.961 C 317.473 170.004,315.494 170.236,315.800 171.200 C 316.073 172.059,315.401 172.333,315.065 171.500 C 314.954 171.225,314.849 171.565,314.832 172.256 C 314.812 173.019,314.996 173.504,315.300 173.493 C 316.510 173.448,317.200 173.628,317.200 173.990 C 317.200 174.210,316.677 174.275,316.000 174.140 L 314.800 173.900 314.704 177.050 C 314.652 178.783,314.515 168.410,314.400 154.000 C 314.217 131.069,314.179 133.674,314.096 174.880 L 314.000 221.961 317.100 220.498 C 318.805 219.693,321.000 218.532,321.978 217.917 C 322.956 217.303,323.904 216.800,324.085 216.800 C 324.266 216.800,325.716 216.024,327.307 215.075 C 333.083 211.630,336.127 209.786,337.153 209.112 C 337.729 208.734,338.740 208.122,339.400 207.753 C 340.060 207.384,341.157 206.658,341.838 206.141 C 342.519 205.623,343.284 205.200,343.538 205.200 C 343.792 205.200,344.000 205.038,344.000 204.839 C 344.000 204.641,344.506 204.302,345.124 204.086 C 345.743 203.871,346.508 203.448,346.824 203.147 C 347.141 202.845,348.074 202.149,348.897 201.599 C 349.721 201.050,350.396 200.465,350.397 200.300 C 350.399 200.135,350.599 200.000,350.842 200.000 C 351.310 200.000,354.506 197.620,354.733 197.103 C 354.807 196.936,355.107 196.800,355.400 196.800 C 355.693 196.800,355.993 196.662,356.067 196.493 C 356.140 196.323,357.370 195.353,358.800 194.336 C 361.264 192.583,361.889 192.082,364.497 189.772 C 365.100 189.237,365.764 188.800,365.974 188.800 C 366.183 188.800,366.590 188.465,366.877 188.055 C 367.165 187.645,368.116 186.825,368.991 186.231 C 369.866 185.638,370.676 185.027,370.791 184.875 C 371.689 183.686,374.174 182.001,374.758 182.187 C 375.178 182.320,375.772 182.051,376.268 181.503 C 377.280 180.386,378.722 179.200,379.068 179.200 C 379.356 179.200,378.872 229.262,378.582 229.552 C 378.482 229.652,378.400 227.003,378.400 223.667 C 378.400 219.889,378.249 217.600,378.000 217.600 C 377.771 217.600,377.600 216.400,377.600 214.800 C 377.600 213.200,377.429 212.000,377.200 212.000 C 376.971 212.000,376.800 213.200,376.800 214.800 C 376.800 216.400,376.629 217.600,376.400 217.600 C 376.155 217.600,375.966 219.959,375.911 223.700 C 375.834 228.947,375.792 228.458,375.611 220.200 C 375.495 214.920,375.238 246.960,375.040 291.400 C 374.842 335.840,374.649 372.695,374.610 373.301 L 374.539 374.402 200.118 374.501 L 25.697 374.600 25.454 369.800 C 25.320 367.160,25.073 331.610,24.905 290.800 C 24.737 249.990,24.503 219.570,24.385 223.200 L 24.170 229.800 24.085 223.700 C 24.033 219.957,23.845 217.600,23.600 217.600 C 23.371 217.600,23.200 216.400,23.200 214.800 C 23.200 213.200,23.029 212.000,22.800 212.000 C 22.571 212.000,22.400 213.200,22.400 214.800 C 22.400 216.400,22.229 217.600,22.000 217.600 C 21.754 217.600,21.573 219.946,21.530 223.700 C 21.492 227.055,21.337 221.970,21.186 212.400 C 21.035 202.830,20.970 194.931,21.043 194.846 C 21.214 194.646,22.776 195.692,23.800 196.692 C 24.385 197.264,24.770 197.368,25.233 197.082 C 25.725 196.778,26.975 197.491,30.833 200.274 C 33.565 202.245,36.880 204.523,38.200 205.336 C 39.520 206.149,42.310 207.914,44.400 209.259 C 53.475 215.099,72.252 224.863,80.700 228.135 L 82.400 228.794 82.307 190.497 C 82.241 163.287,82.152 156.832,82.000 168.200 C 81.882 177.000,81.723 183.570,81.646 182.800 C 81.568 182.030,81.542 181.220,81.587 181.000 C 81.815 179.888,81.094 175.523,80.768 176.039 C 80.501 176.461,80.411 176.371,80.406 175.676 C 80.403 175.161,80.577 174.862,80.800 175.000 C 81.020 175.136,81.200 175.053,81.200 174.816 C 81.200 174.556,80.764 174.477,80.100 174.617 C 79.495 174.745,78.606 174.930,78.125 175.027 C 77.643 175.124,77.156 175.052,77.041 174.867 C 76.927 174.682,76.421 174.577,75.917 174.632 C 75.413 174.688,73.965 174.748,72.700 174.767 C 70.794 174.794,70.398 174.920,70.387 175.500 C 70.375 176.167,70.349 176.167,69.843 175.500 C 69.076 174.489,62.459 174.450,62.544 175.457 C 62.575 175.818,62.363 176.197,62.073 176.299 C 61.744 176.415,61.593 176.226,61.673 175.795 C 61.844 174.869,59.290 174.501,58.944 175.402 C 58.613 176.264,57.901 176.141,58.178 175.269 C 58.375 174.647,58.228 174.564,57.202 174.714 C 56.537 174.812,55.724 174.669,55.396 174.397 C 55.004 174.071,54.800 174.051,54.800 174.337 C 54.800 174.576,54.413 174.979,53.939 175.232 C 53.234 175.610,53.118 175.590,53.298 175.122 C 53.465 174.687,53.240 174.591,52.359 174.721 C 51.721 174.814,51.200 175.050,51.200 175.245 C 51.200 175.440,50.840 175.600,50.400 175.600 C 49.960 175.600,49.600 175.440,49.600 175.245 C 49.600 175.050,49.079 174.814,48.441 174.721 C 47.603 174.598,47.339 174.696,47.484 175.075 C 47.831 175.980,46.944 175.646,46.488 174.700 C 46.249 174.205,46.042 174.025,46.027 174.300 C 46.012 174.575,45.640 174.800,45.200 174.800 C 44.760 174.800,44.400 174.980,44.400 175.200 C 44.400 175.420,44.580 175.600,44.800 175.600 C 45.020 175.600,45.200 175.808,45.200 176.062 C 45.200 176.322,44.846 176.204,44.391 175.791 C 43.945 175.389,43.739 174.956,43.931 174.829 C 44.385 174.532,44.793 172.357,44.342 172.636 C 44.154 172.752,44.000 173.197,44.000 173.624 C 44.000 174.051,43.833 174.400,43.629 174.400 C 43.424 174.400,42.958 174.699,42.592 175.065 C 42.075 175.582,41.858 175.617,41.614 175.223 C 41.391 174.862,40.053 174.723,36.962 174.739 C 34.001 174.755,32.525 174.609,32.312 174.281 C 32.078 173.920,31.893 173.950,31.570 174.400 C 31.245 174.852,31.089 174.876,30.936 174.500 C 30.696 173.907,29.200 173.821,29.200 174.400 C 29.200 174.620,28.855 174.800,28.433 174.800 C 28.012 174.800,27.575 175.025,27.464 175.300 C 27.311 175.677,27.152 175.652,26.818 175.200 C 26.478 174.739,26.385 175.157,26.420 177.000 C 26.505 181.493,26.414 182.641,26.021 182.020 C 25.808 181.684,25.645 169.041,25.633 151.820 C 25.611 122.686,25.411 90.506,24.978 46.900 L 24.759 24.800 30.479 24.717 L 36.200 24.635 30.600 24.400 C 27.520 24.271,26.046 24.128,27.324 24.083 C 28.642 24.036,29.547 23.838,29.416 23.626 C 29.289 23.421,28.514 23.325,27.693 23.414 C 26.872 23.502,26.515 23.477,26.900 23.358 C 28.464 22.874,27.431 22.397,24.700 22.343 C 22.212 22.295,22.027 22.246,23.400 22.000 L 25.000 21.714 23.320 21.657 L 21.640 21.600 21.496 23.900 L 21.351 26.200 21.276 23.600 L 21.200 21.000 41.300 20.859 C 52.355 20.781,61.475 20.646,61.567 20.559 C 61.658 20.471,52.433 20.400,41.067 20.400 L 20.400 20.400 20.312 68.700 M262.905 20.687 C 263.514 20.779,264.414 20.777,264.905 20.682 C 265.397 20.587,264.900 20.511,263.800 20.514 C 262.700 20.517,262.297 20.595,262.905 20.687 M274.100 20.691 C 274.925 20.778,276.275 20.778,277.100 20.691 C 277.925 20.605,277.250 20.534,275.600 20.534 C 273.950 20.534,273.275 20.605,274.100 20.691 M26.300 21.882 C 26.795 21.978,27.605 21.978,28.100 21.882 C 28.595 21.787,28.190 21.709,27.200 21.709 C 26.210 21.709,25.805 21.787,26.300 21.882 M341.107 21.890 C 341.826 21.979,342.906 21.977,343.507 21.886 C 344.108 21.795,343.520 21.722,342.200 21.724 C 340.880 21.726,340.388 21.801,341.107 21.890 M328.100 23.476 C 328.485 23.576,329.115 23.576,329.500 23.476 C 329.885 23.375,329.570 23.293,328.800 23.293 C 328.030 23.293,327.715 23.375,328.100 23.476 M357.100 24.287 C 356.495 24.378,355.505 24.378,354.900 24.287 C 354.295 24.195,354.790 24.120,356.000 24.120 C 357.210 24.120,357.705 24.195,357.100 24.287 M324.700 24.682 C 325.195 24.778,326.005 24.778,326.500 24.682 C 326.995 24.587,326.590 24.509,325.600 24.509 C 324.610 24.509,324.205 24.587,324.700 24.682 M153.731 114.801 C 151.635 115.236,150.043 116.056,148.950 117.262 C 147.952 118.364,147.059 119.992,147.314 120.247 C 147.412 120.345,147.711 119.898,147.978 119.252 C 149.454 115.689,156.340 113.827,160.937 115.748 C 161.742 116.084,162.400 116.269,162.400 116.159 C 162.400 115.186,156.401 114.247,153.731 114.801 M237.785 115.602 C 233.682 116.192,230.331 119.415,230.419 122.687 C 230.430 123.079,230.721 122.590,231.066 121.600 C 233.440 114.790,244.172 113.429,247.992 119.452 C 249.262 121.454,249.609 121.552,248.614 119.628 C 246.982 116.472,242.730 114.891,237.785 115.602 M164.110 118.513 C 164.819 119.719,165.458 120.655,165.528 120.592 C 165.757 120.387,164.076 117.361,163.439 116.833 C 163.099 116.550,163.400 117.306,164.110 118.513 M146.496 185.124 C 146.437 223.325,146.544 247.558,146.770 247.419 C 146.973 247.293,148.908 247.456,151.070 247.780 C 154.538 248.300,164.899 249.587,165.700 249.596 C 165.865 249.598,166.000 231.660,166.000 209.733 C 166.000 187.807,165.892 169.975,165.760 170.107 C 165.628 170.239,165.543 172.489,165.572 175.107 C 165.617 179.155,165.532 179.867,165.006 179.867 C 164.577 179.867,164.463 179.630,164.635 179.090 C 165.070 177.718,164.410 173.910,163.779 174.153 C 163.473 174.270,162.961 174.104,162.640 173.783 C 162.319 173.462,161.941 173.200,161.800 173.200 C 161.659 173.200,161.241 172.896,160.871 172.524 C 160.242 171.890,160.192 171.914,160.075 172.905 C 159.996 173.577,159.632 174.061,159.075 174.235 C 158.594 174.385,158.048 174.709,157.862 174.954 C 157.655 175.228,157.611 175.130,157.750 174.700 C 157.989 173.956,157.040 173.689,156.612 174.380 C 156.365 174.780,149.352 174.629,147.984 174.195 C 147.238 173.958,147.195 174.184,147.104 178.873 C 147.051 181.583,146.914 170.030,146.800 153.200 C 146.635 128.920,146.573 135.513,146.496 185.124 M249.537 149.900 C 249.502 163.925,249.502 175.730,249.538 176.133 C 249.669 177.619,249.043 178.105,248.077 177.266 C 247.036 176.364,246.991 176.041,247.824 175.432 C 248.325 175.066,248.364 174.756,248.021 173.855 C 247.786 173.238,247.713 172.540,247.859 172.305 C 248.016 172.051,247.935 171.993,247.662 172.162 C 247.390 172.330,247.200 172.197,247.200 171.838 C 247.200 171.502,246.795 171.012,246.300 170.749 C 245.539 170.343,245.469 170.356,245.851 170.835 C 246.099 171.146,246.436 171.850,246.600 172.400 L 246.898 173.400 246.128 172.530 C 245.471 171.788,245.302 171.748,244.979 172.257 C 244.382 173.198,243.155 172.519,243.435 171.402 C 243.562 170.899,243.472 170.368,243.237 170.223 C 242.982 170.065,242.898 170.189,243.028 170.529 C 243.183 170.932,242.946 171.100,242.224 171.100 C 241.661 171.100,241.200 170.915,241.200 170.688 C 241.200 170.461,240.866 170.578,240.458 170.948 C 239.784 171.558,238.400 171.497,238.400 170.857 C 238.400 170.716,237.973 170.600,237.451 170.600 C 236.856 170.600,236.573 170.787,236.694 171.100 C 236.812 171.409,236.525 171.612,235.943 171.632 C 235.424 171.649,235.225 171.754,235.500 171.865 C 236.238 172.163,236.107 172.749,235.300 172.758 C 234.915 172.763,234.130 172.845,233.557 172.942 C 232.387 173.138,231.828 172.884,231.492 172.000 C 231.366 171.670,231.217 172.660,231.160 174.200 C 230.895 181.434,230.538 167.671,230.462 147.224 C 230.418 135.247,230.295 125.362,230.191 125.257 C 230.086 125.152,230.014 152.862,230.032 186.833 C 230.049 220.805,230.154 248.375,230.265 248.100 C 230.376 247.825,230.868 247.600,231.358 247.600 C 232.332 247.600,245.236 245.414,247.778 244.819 C 248.646 244.615,249.501 244.539,249.678 244.648 C 249.855 244.758,250.000 217.747,250.000 184.624 C 250.000 151.501,249.910 124.400,249.800 124.400 C 249.690 124.400,249.571 135.875,249.537 149.900 M165.731 167.000 C 165.733 168.540,165.805 169.121,165.892 168.291 C 165.979 167.461,165.977 166.201,165.889 165.491 C 165.800 164.781,165.729 165.460,165.731 167.000 M340.800 165.576 C 340.800 166.029,340.980 166.400,341.200 166.400 C 341.420 166.400,341.600 166.141,341.600 165.824 C 341.600 165.507,341.420 165.136,341.200 165.000 C 340.980 164.864,340.800 165.123,340.800 165.576 M348.000 165.092 C 348.330 165.217,348.725 165.513,348.878 165.748 C 349.238 166.302,349.765 165.791,349.416 165.227 C 349.271 164.992,348.758 164.814,348.276 164.832 C 347.680 164.853,347.592 164.936,348.000 165.092 M351.347 165.747 C 351.958 166.358,352.159 166.395,352.447 165.947 C 352.742 165.490,352.871 165.499,353.230 166.000 C 353.555 166.452,353.711 166.476,353.864 166.100 C 354.105 165.506,355.200 165.424,355.200 166.000 C 355.200 166.717,356.400 166.420,356.413 165.700 C 356.425 165.033,356.451 165.033,356.957 165.700 C 357.288 166.136,358.025 166.400,358.915 166.400 C 359.937 166.400,360.393 166.202,360.524 165.700 C 360.698 165.033,360.709 165.033,360.754 165.700 C 360.792 166.277,361.190 166.400,363.024 166.400 C 364.289 166.400,365.148 166.240,365.018 166.029 C 364.761 165.613,366.326 164.993,366.697 165.363 C 366.827 165.494,366.633 165.600,366.267 165.600 C 365.900 165.600,365.600 165.780,365.600 166.000 C 365.600 166.659,366.872 166.452,367.443 165.700 C 367.949 165.033,367.975 165.033,367.987 165.700 C 368.013 167.134,371.200 166.443,371.200 165.004 C 371.200 164.932,366.565 164.901,360.900 164.936 C 350.843 164.999,350.618 165.018,351.347 165.747 M335.100 165.476 C 334.142 165.726,334.215 166.400,335.200 166.400 C 335.644 166.400,336.000 166.133,336.000 165.800 C 336.000 165.470,335.955 165.221,335.900 165.246 C 335.845 165.272,335.485 165.375,335.100 165.476 M337.390 165.848 C 337.747 166.204,338.159 166.374,338.307 166.226 C 338.456 166.078,338.312 165.789,337.988 165.584 C 337.043 164.987,336.687 165.144,337.390 165.848 M344.790 165.606 C 343.978 166.108,344.535 166.483,345.863 166.327 C 346.946 166.201,346.961 166.172,346.178 165.725 C 345.679 165.440,345.134 165.393,344.790 165.606 M48.200 169.600 C 48.053 169.839,48.537 170.000,49.400 170.000 C 50.263 170.000,50.747 169.839,50.600 169.600 C 50.464 169.380,49.924 169.200,49.400 169.200 C 48.876 169.200,48.336 169.380,48.200 169.600 M232.453 170.758 C 232.039 171.021,232.012 171.286,232.341 171.852 C 232.745 172.547,232.777 172.534,232.788 171.676 C 232.795 171.165,232.978 170.863,233.200 171.000 C 233.420 171.136,233.600 171.057,233.600 170.824 C 233.600 170.314,233.192 170.290,232.453 170.758 M343.487 171.240 C 343.809 171.346,343.850 171.599,343.609 171.988 C 343.176 172.686,342.993 172.540,342.623 171.200 C 342.472 170.650,342.494 170.398,342.674 170.640 C 342.853 170.882,343.219 171.152,343.487 171.240 M317.600 171.200 C 317.600 171.420,317.330 171.600,317.000 171.600 C 316.670 171.600,316.400 171.420,316.400 171.200 C 316.400 170.980,316.670 170.800,317.000 170.800 C 317.330 170.800,317.600 170.980,317.600 171.200 M323.494 172.400 C 323.529 173.280,323.408 174.000,323.226 174.000 C 322.954 174.000,322.923 172.696,323.156 171.100 C 323.270 170.318,323.436 170.956,323.494 172.400 M321.588 172.800 C 321.588 173.333,321.545 173.333,321.200 172.800 C 320.987 172.470,320.812 171.930,320.812 171.600 C 320.812 171.067,320.855 171.067,321.200 171.600 C 321.413 171.930,321.588 172.470,321.588 172.800 M331.600 171.551 C 331.600 172.046,330.428 172.961,330.150 172.683 C 329.895 172.428,330.826 171.239,331.300 171.215 C 331.465 171.207,331.600 171.358,331.600 171.551 M65.300 172.294 C 66.345 172.376,68.055 172.376,69.100 172.294 C 70.145 172.212,69.290 172.144,67.200 172.144 C 65.110 172.144,64.255 172.212,65.300 172.294 M153.019 172.500 C 152.666 173.312,151.759 173.428,151.465 172.700 C 151.354 172.425,151.249 172.563,151.232 173.008 C 151.203 173.739,151.446 173.815,153.800 173.808 C 156.660 173.799,156.657 173.800,155.800 172.943 C 155.470 172.613,155.200 172.536,155.200 172.771 C 155.200 173.491,153.670 173.248,153.491 172.500 C 153.332 171.833,153.309 171.833,153.019 172.500 M239.843 172.633 C 239.709 172.981,239.600 173.431,239.600 173.633 C 239.600 174.255,238.900 174.038,238.629 173.332 C 238.488 172.964,238.603 172.518,238.886 172.338 C 239.701 171.821,240.106 171.946,239.843 172.633 M318.229 172.571 C 318.543 172.886,318.794 173.381,318.787 173.671 C 318.779 174.028,318.602 173.972,318.243 173.500 C 317.951 173.115,317.417 172.800,317.056 172.800 C 316.695 172.800,316.400 172.620,316.400 172.400 C 316.400 171.806,317.573 171.916,318.229 172.571 M27.479 172.957 C 27.315 173.374,27.275 173.809,27.391 173.924 C 27.755 174.289,28.076 173.691,27.924 172.931 C 27.783 172.235,27.762 172.236,27.479 172.957 M158.000 173.000 C 158.000 173.330,158.180 173.600,158.400 173.600 C 158.620 173.600,158.800 173.330,158.800 173.000 C 158.800 172.670,158.620 172.400,158.400 172.400 C 158.180 172.400,158.000 172.670,158.000 173.000 M333.600 172.800 C 333.600 173.020,333.150 173.200,332.600 173.200 C 332.050 173.200,331.600 173.020,331.600 172.800 C 331.600 172.580,332.050 172.400,332.600 172.400 C 333.150 172.400,333.600 172.580,333.600 172.800 M62.700 173.498 C 64.515 173.572,67.485 173.572,69.300 173.498 C 71.115 173.423,69.630 173.363,66.000 173.363 C 62.370 173.363,60.885 173.423,62.700 173.498 M161.588 173.984 C 161.912 174.189,162.056 174.478,161.907 174.626 C 161.759 174.774,161.347 174.604,160.990 174.248 C 160.287 173.544,160.643 173.387,161.588 173.984 M244.800 174.200 C 244.800 174.530,244.620 174.800,244.400 174.800 C 244.180 174.800,244.000 174.530,244.000 174.200 C 244.000 173.870,244.180 173.600,244.400 173.600 C 244.620 173.600,244.800 173.870,244.800 174.200 M232.967 174.500 C 233.150 174.894,233.251 174.889,233.440 174.479 C 233.760 173.785,234.797 175.143,234.513 175.883 C 234.233 176.612,233.200 176.528,233.200 175.776 C 233.200 175.433,233.020 175.264,232.800 175.400 C 232.580 175.536,232.400 175.561,232.400 175.456 C 232.400 175.351,232.291 174.981,232.157 174.633 C 231.872 173.889,232.624 173.766,232.967 174.500 M66.522 176.023 C 66.659 176.546,66.567 176.789,66.269 176.690 C 65.693 176.498,65.393 175.200,65.924 175.200 C 66.134 175.200,66.404 175.570,66.522 176.023 M248.000 176.200 C 248.000 176.530,248.180 176.800,248.400 176.800 C 248.620 176.800,248.800 176.530,248.800 176.200 C 248.800 175.870,248.620 175.600,248.400 175.600 C 248.180 175.600,248.000 175.870,248.000 176.200 M33.986 176.800 C 34.162 176.800,34.403 177.167,34.520 177.616 C 34.693 178.278,34.588 178.387,33.967 178.189 C 33.521 178.048,33.200 178.135,33.200 178.397 C 33.200 178.644,33.001 178.724,32.757 178.574 C 32.448 178.382,32.478 178.185,32.857 177.920 C 33.279 177.624,33.289 177.494,32.900 177.336 C 32.161 177.036,32.291 176.273,33.033 176.557 C 33.381 176.691,33.810 176.800,33.986 176.800 M80.676 178.700 C 80.575 179.085,80.493 178.770,80.493 178.000 C 80.493 177.230,80.575 176.915,80.676 177.300 C 80.776 177.685,80.776 178.315,80.676 178.700 M241.127 177.869 C 241.057 178.457,240.805 179.002,240.568 179.080 C 240.298 179.168,240.202 178.767,240.313 178.011 C 240.532 176.519,241.302 176.385,241.127 177.869 M238.400 177.600 C 238.400 177.820,238.130 178.000,237.800 178.000 C 237.470 178.000,237.200 177.820,237.200 177.600 C 237.200 177.380,237.470 177.200,237.800 177.200 C 238.130 177.200,238.400 177.380,238.400 177.600 M246.794 178.500 C 246.789 179.228,246.714 179.285,246.400 178.800 C 245.899 178.024,245.899 177.600,246.400 177.600 C 246.620 177.600,246.797 178.005,246.794 178.500 M30.800 178.167 C 30.800 178.259,30.909 178.619,31.043 178.967 C 31.391 179.873,30.686 179.749,30.093 178.800 C 29.676 178.133,29.693 178.000,30.197 178.000 C 30.528 178.000,30.800 178.075,30.800 178.167 M32.167 178.657 C 32.501 179.530,32.057 179.936,31.584 179.188 C 31.111 178.440,31.101 178.000,31.557 178.000 C 31.754 178.000,32.028 178.296,32.167 178.657 M68.600 178.400 C 68.464 178.620,68.573 178.800,68.843 178.800 C 69.113 178.800,69.250 178.883,69.149 178.984 C 68.855 179.278,67.200 178.743,67.200 178.353 C 67.200 178.159,67.571 178.000,68.024 178.000 C 68.477 178.000,68.736 178.180,68.600 178.400 M76.000 179.000 C 76.000 179.330,75.730 179.600,75.400 179.600 C 75.070 179.600,74.800 179.330,74.800 179.000 C 74.800 178.670,75.070 178.400,75.400 178.400 C 75.730 178.400,76.000 178.670,76.000 179.000 M78.400 179.000 C 78.400 179.333,78.044 179.600,77.600 179.600 C 76.803 179.600,76.560 179.174,77.067 178.667 C 77.554 178.179,78.400 178.391,78.400 179.000 M152.906 179.100 C 152.801 179.375,152.172 179.600,151.508 179.600 C 150.523 179.600,150.387 179.498,150.764 179.043 C 151.340 178.349,153.176 178.398,152.906 179.100 M152.847 180.759 C 151.970 181.520,150.625 181.487,150.134 180.693 C 149.974 180.434,150.235 180.372,150.844 180.525 C 151.373 180.658,152.075 180.597,152.403 180.389 C 153.454 179.725,153.753 179.974,152.847 180.759 M166.114 326.600 C 166.117 327.700,166.195 328.103,166.287 327.495 C 166.379 326.886,166.377 325.986,166.282 325.495 C 166.187 325.003,166.111 325.500,166.114 326.600 M145.762 328.798 C 145.508 329.052,134.232 329.233,114.382 329.300 L 83.400 329.405 114.451 329.503 C 141.644 329.588,145.564 329.525,146.000 329.000 C 146.556 328.330,146.380 328.180,145.762 328.798 M250.742 329.302 C 250.909 329.469,264.985 329.559,282.022 329.502 L 313.000 329.400 281.720 329.200 C 264.516 329.090,250.576 329.136,250.742 329.302 M182.730 329.500 C 191.381 329.560,205.421 329.560,213.930 329.500 C 222.438 329.440,215.360 329.390,198.200 329.390 C 181.040 329.390,174.078 329.440,182.730 329.500 " stroke="none" fill="#df8c8e" fill-rule="evenodd"></path><path id="path4" d="M176.600 74.394 C 167.751 75.044,159.233 77.004,153.600 79.688 C 151.298 80.784,149.586 81.330,148.300 81.377 L 146.400 81.447 146.394 79.423 C 146.382 75.429,147.840 75.605,114.720 75.602 C 85.200 75.600,83.078 75.714,82.646 77.325 C 82.144 79.196,82.376 328.216,82.880 328.720 C 83.513 329.353,84.818 329.338,84.620 328.700 C 84.534 328.425,84.360 297.420,84.232 259.800 C 84.104 222.180,83.881 166.364,83.736 135.764 L 83.473 80.127 84.336 79.264 L 85.200 78.400 114.591 78.400 L 143.982 78.400 144.546 79.300 C 144.856 79.795,145.230 80.885,145.377 81.722 C 145.972 85.108,147.683 85.426,152.173 82.986 C 163.901 76.613,186.121 74.769,199.668 79.045 C 206.146 81.089,212.554 84.603,218.316 89.270 C 223.116 93.159,223.671 93.181,228.079 89.667 C 256.846 66.733,304.624 75.591,311.866 105.200 C 312.649 108.399,312.712 172.977,312.046 287.100 C 311.783 332.068,311.739 330.843,313.557 328.652 C 314.424 327.607,313.971 104.788,313.096 101.800 C 310.434 92.719,303.592 85.416,292.584 79.905 C 273.369 70.287,245.893 73.017,228.524 86.269 C 223.071 90.430,223.946 90.489,217.355 85.519 C 205.722 76.745,192.760 73.207,176.600 74.394 M145.850 123.900 C 145.314 126.260,145.182 139.296,144.802 227.400 C 144.562 282.840,144.290 328.425,144.196 328.700 C 143.966 329.372,145.384 329.343,145.947 328.664 C 146.310 328.227,146.893 121.200,146.532 121.200 C 146.495 121.200,146.188 122.415,145.850 123.900 M166.084 181.200 C 166.102 213.870,166.226 260.490,166.358 284.800 L 166.600 329.000 167.473 329.124 C 168.242 329.234,168.329 329.091,168.205 327.924 C 168.128 327.196,167.945 282.230,167.799 228.000 C 167.653 173.770,167.379 128.137,167.189 126.593 C 166.160 118.231,166.052 123.564,166.084 181.200 M249.905 225.440 C 249.987 306.903,250.113 328.624,250.505 328.873 C 252.271 329.995,252.219 331.147,251.901 297.900 C 251.736 280.685,251.452 234.920,251.270 196.200 C 250.992 137.047,250.848 125.522,250.369 124.061 C 249.874 122.549,249.814 135.803,249.905 225.440 M229.604 124.300 C 229.039 125.900,228.698 167.793,228.359 277.400 C 228.255 310.866,228.061 328.709,227.800 328.915 C 227.580 329.088,227.940 329.178,228.600 329.115 L 229.800 329.000 230.000 226.000 C 230.228 108.788,230.281 122.386,229.604 124.300 " stroke="none" fill="#aeb1b0" fill-rule="evenodd"></path></g></svg>